<?xml version="1.0" encoding="UTF-8"?>
<svg xmlns="http://www.w3.org/2000/svg" xmlns:xlink="http://www.w3.org/1999/xlink" width="30px" height="30px" viewBox="0 0 30 30" version="1.1">
<defs>
<filter id="alpha" filterUnits="objectBoundingBox" x="0%" y="0%" width="100%" height="100%">
  <feColorMatrix type="matrix" in="SourceGraphic" values="0 0 0 0 1 0 0 0 0 1 0 0 0 0 1 0 0 0 1 0"/>
</filter>
<mask id="mask0">
  <g filter="url(#alpha)">
<rect x="0" y="0" width="30" height="30" style="fill:rgb(0%,0%,0%);fill-opacity:0.403922;stroke:none;"/>
  </g>
</mask>
<linearGradient id="linear0" gradientUnits="userSpaceOnUse" x1="302.85715" y1="366.64789" x2="302.85715" y2="609.50507" gradientTransform="matrix(0.0365085,0,0,0.0256894,1.772406,12.679309)">
<stop offset="0" style="stop-color:rgb(0%,0%,0%);stop-opacity:0;"/>
<stop offset="0.5" style="stop-color:rgb(0%,0%,0%);stop-opacity:1;"/>
<stop offset="1" style="stop-color:rgb(0%,0%,0%);stop-opacity:0;"/>
</linearGradient>
<clipPath id="clip1">
  <rect x="0" y="0" width="30" height="30"/>
</clipPath>
<g id="surface5" clip-path="url(#clip1)">
<path style=" stroke:none;fill-rule:nonzero;fill:url(#linear0);" d="M 6.152344 22.097656 L 23.78125 22.097656 L 23.78125 28.335938 L 6.152344 28.335938 Z M 6.152344 22.097656 "/>
</g>
<mask id="mask1">
  <g filter="url(#alpha)">
<rect x="0" y="0" width="30" height="30" style="fill:rgb(0%,0%,0%);fill-opacity:0.403922;stroke:none;"/>
  </g>
</mask>
<radialGradient id="radial0" gradientUnits="userSpaceOnUse" cx="605.71429" cy="486.64789" fx="605.71429" fy="486.64789" r="117.14286" gradientTransform="matrix(0.0365085,0,0,0.0256894,1.779591,12.679309)">
<stop offset="0" style="stop-color:rgb(0%,0%,0%);stop-opacity:1;"/>
<stop offset="1" style="stop-color:rgb(0%,0%,0%);stop-opacity:0;"/>
</radialGradient>
<clipPath id="clip2">
  <rect x="0" y="0" width="30" height="30"/>
</clipPath>
<g id="surface8" clip-path="url(#clip2)">
<path style=" stroke:none;fill-rule:nonzero;fill:url(#radial0);" d="M 23.78125 22.097656 C 23.78125 22.097656 23.78125 28.335938 23.78125 28.335938 C 25.660156 28.347656 28.328125 26.9375 28.328125 25.21875 C 28.328125 23.496094 26.230469 22.097656 23.78125 22.097656 Z M 23.78125 22.097656 "/>
</g>
<mask id="mask2">
  <g filter="url(#alpha)">
<rect x="0" y="0" width="30" height="30" style="fill:rgb(0%,0%,0%);fill-opacity:0.403922;stroke:none;"/>
  </g>
</mask>
<radialGradient id="radial1" gradientUnits="userSpaceOnUse" cx="605.71429" cy="486.64789" fx="605.71429" fy="486.64789" r="117.14286" gradientTransform="matrix(-0.0365085,0,0,0.0256894,28.155691,12.679309)">
<stop offset="0" style="stop-color:rgb(0%,0%,0%);stop-opacity:1;"/>
<stop offset="1" style="stop-color:rgb(0%,0%,0%);stop-opacity:0;"/>
</radialGradient>
<clipPath id="clip3">
  <rect x="0" y="0" width="30" height="30"/>
</clipPath>
<g id="surface11" clip-path="url(#clip3)">
<path style=" stroke:none;fill-rule:nonzero;fill:url(#radial1);" d="M 6.152344 22.097656 C 6.152344 22.097656 6.152344 28.335938 6.152344 28.335938 C 4.273438 28.347656 1.609375 26.9375 1.609375 25.21875 C 1.609375 23.496094 3.707031 22.097656 6.152344 22.097656 Z M 6.152344 22.097656 "/>
</g>
<linearGradient id="linear1" gradientUnits="userSpaceOnUse" x1="25.348972" y1="37.548233" x2="25.348972" y2="39.750675" gradientTransform="matrix(0.951156,0,0,1,1.172114,0)">
<stop offset="0" style="stop-color:rgb(21.960784%,22.352941%,21.176471%);stop-opacity:1;"/>
<stop offset="1" style="stop-color:rgb(33.333333%,34.117647%,32.54902%);stop-opacity:1;"/>
</linearGradient>
<mask id="mask3">
  <g filter="url(#alpha)">
<rect x="0" y="0" width="30" height="30" style="fill:rgb(0%,0%,0%);fill-opacity:0.231373;stroke:none;"/>
  </g>
</mask>
<clipPath id="clip4">
  <rect x="0" y="0" width="30" height="30"/>
</clipPath>
<g id="surface14" clip-path="url(#clip4)">
<path style=" stroke:none;fill-rule:evenodd;fill:rgb(100%,100%,100%);fill-opacity:1;" d="M 4.707031 23.507812 L 4.582031 25.625 L 25.820312 25.625 L 4.894531 25.3125 Z M 4.707031 23.507812 "/>
</g>
<linearGradient id="linear2" gradientUnits="userSpaceOnUse" x1="37.270947" y1="27.272932" x2="35.871902" y2="22.67392" gradientTransform="matrix(1.125982,0,0,1.272791,-4.167995,-7.706526)">
<stop offset="0" style="stop-color:rgb(100%,100%,100%);stop-opacity:1;"/>
<stop offset="1" style="stop-color:rgb(90.196078%,90.196078%,90.196078%);stop-opacity:1;"/>
</linearGradient>
<mask id="mask4">
  <g filter="url(#alpha)">
<rect x="0" y="0" width="30" height="30" style="fill:rgb(0%,0%,0%);fill-opacity:0.207843;stroke:none;"/>
  </g>
</mask>
<clipPath id="clip5">
  <rect x="0" y="0" width="30" height="30"/>
</clipPath>
<g id="surface17" clip-path="url(#clip5)">
<path style=" stroke:none;fill-rule:evenodd;fill:rgb(0%,0%,0%);fill-opacity:1;" d="M 26.757812 21.898438 L 26.304688 18.21875 L 22.390625 21.914062 Z M 26.757812 21.898438 "/>
</g>
<mask id="mask5">
  <g filter="url(#alpha)">
<rect x="0" y="0" width="30" height="30" style="fill:rgb(0%,0%,0%);fill-opacity:0.333333;stroke:none;"/>
  </g>
</mask>
<radialGradient id="radial2" gradientUnits="userSpaceOnUse" cx="13.832776" cy="17.903767" fx="13.832776" fy="17.903767" r="1.811961" gradientTransform="matrix(1.012698,0,0,1.42561,0.523312,-17.72152)">
<stop offset="0" style="stop-color:rgb(0%,0%,0%);stop-opacity:1;"/>
<stop offset="1" style="stop-color:rgb(0%,0%,0%);stop-opacity:0;"/>
</radialGradient>
<clipPath id="clip6">
  <rect x="0" y="0" width="30" height="30"/>
</clipPath>
<g id="surface20" clip-path="url(#clip6)">
<path style=" stroke:none;fill-rule:evenodd;fill:url(#radial2);" d="M 16.367188 7.800781 C 16.367188 9.230469 15.546875 10.386719 14.53125 10.386719 C 13.519531 10.386719 12.695312 9.230469 12.695312 7.800781 C 12.695312 6.375 13.519531 5.21875 14.53125 5.21875 C 15.546875 5.21875 16.367188 6.375 16.367188 7.800781 Z M 16.367188 7.800781 "/>
</g>
<mask id="mask6">
  <g filter="url(#alpha)">
<rect x="0" y="0" width="30" height="30" style="fill:rgb(0%,0%,0%);fill-opacity:0.333333;stroke:none;"/>
  </g>
</mask>
<radialGradient id="radial3" gradientUnits="userSpaceOnUse" cx="13.832776" cy="17.903767" fx="13.832776" fy="17.903767" r="1.811961" gradientTransform="matrix(0.703739,0,0,1.212195,12.074744,-14.28729)">
<stop offset="0" style="stop-color:rgb(0%,0%,0%);stop-opacity:1;"/>
<stop offset="1" style="stop-color:rgb(0%,0%,0%);stop-opacity:0;"/>
</radialGradient>
<clipPath id="clip7">
  <rect x="0" y="0" width="30" height="30"/>
</clipPath>
<g id="surface23" clip-path="url(#clip7)">
<path style=" stroke:none;fill-rule:evenodd;fill:url(#radial3);" d="M 23.085938 7.414062 C 23.085938 8.628906 22.515625 9.613281 21.808594 9.613281 C 21.105469 9.613281 20.535156 8.628906 20.535156 7.414062 C 20.535156 6.203125 21.105469 5.21875 21.808594 5.21875 C 22.515625 5.21875 23.085938 6.203125 23.085938 7.414062 Z M 23.085938 7.414062 "/>
</g>
<mask id="mask7">
  <g filter="url(#alpha)">
<rect x="0" y="0" width="30" height="30" style="fill:rgb(0%,0%,0%);fill-opacity:0.333333;stroke:none;"/>
  </g>
</mask>
<radialGradient id="radial4" gradientUnits="userSpaceOnUse" cx="13.832776" cy="17.903767" fx="13.832776" fy="17.903767" r="1.811961" gradientTransform="matrix(0.703739,0,0,1.334146,-2.853806,-16.24971)">
<stop offset="0" style="stop-color:rgb(0%,0%,0%);stop-opacity:1;"/>
<stop offset="1" style="stop-color:rgb(0%,0%,0%);stop-opacity:0;"/>
</radialGradient>
<clipPath id="clip8">
  <rect x="0" y="0" width="30" height="30"/>
</clipPath>
<g id="surface26" clip-path="url(#clip8)">
<path style=" stroke:none;fill-rule:evenodd;fill:url(#radial4);" d="M 8.15625 7.636719 C 8.15625 8.972656 7.585938 10.054688 6.878906 10.054688 C 6.175781 10.054688 5.605469 8.972656 5.605469 7.636719 C 5.605469 6.300781 6.175781 5.21875 6.878906 5.21875 C 7.585938 5.21875 8.15625 6.300781 8.15625 7.636719 Z M 8.15625 7.636719 "/>
</g>
<linearGradient id="linear3" gradientUnits="userSpaceOnUse" x1="23.20356" y1="24.077753" x2="30.741646" y2="36.054375" gradientTransform="matrix(0.625,0,0,0.625,0,0)">
<stop offset="0" style="stop-color:rgb(18.039216%,20.392157%,21.176471%);stop-opacity:1;"/>
<stop offset="1" style="stop-color:rgb(18.039216%,20.392157%,21.176471%);stop-opacity:0;"/>
</linearGradient>
<radialGradient id="radial5" gradientUnits="userSpaceOnUse" cx="12.993087" cy="18.399908" fx="12.993087" fy="18.399908" r="2.161726" >
<stop offset="0" style="stop-color:rgb(100%,100%,100%);stop-opacity:1;"/>
<stop offset="1" style="stop-color:rgb(100%,100%,100%);stop-opacity:0;"/>
</radialGradient>
<radialGradient id="radial6" gradientUnits="userSpaceOnUse" cx="12.887021" cy="16.771133" fx="12.887021" fy="16.771133" r="1.59099" gradientTransform="matrix(1.064296,0.000000000000002446,-0.000000000000002444,1.065019,-7.563907,-10.01437)">
<stop offset="0" style="stop-color:rgb(0%,0%,0%);stop-opacity:1;"/>
<stop offset="1" style="stop-color:rgb(0%,0%,0%);stop-opacity:0;"/>
</radialGradient>
<radialGradient id="radial7" gradientUnits="userSpaceOnUse" cx="12.887021" cy="16.771133" fx="12.887021" fy="16.771133" r="1.59099" gradientTransform="matrix(1.064296,0.000000000000002446,-0.000000000000002444,1.065019,7.441279,-10.01437)">
<stop offset="0" style="stop-color:rgb(0%,0%,0%);stop-opacity:1;"/>
<stop offset="1" style="stop-color:rgb(0%,0%,0%);stop-opacity:0;"/>
</radialGradient>
<linearGradient id="linear4" gradientUnits="userSpaceOnUse" x1="10.998293" y1="11.928971" x2="14.539844" y2="13.486036" gradientTransform="matrix(1,0,0,1,-0.000000000000007105,0)">
<stop offset="0" style="stop-color:rgb(60%,60.392157%,59.607843%);stop-opacity:1;"/>
<stop offset="0.5" style="stop-color:rgb(79.215686%,80%,78.431373%);stop-opacity:1;"/>
<stop offset="1" style="stop-color:rgb(38.039216%,38.039216%,38.039216%);stop-opacity:1;"/>
</linearGradient>
<linearGradient id="linear5" gradientUnits="userSpaceOnUse" x1="10.998293" y1="11.928971" x2="14.539844" y2="13.486036" >
<stop offset="0" style="stop-color:rgb(60%,60.392157%,59.607843%);stop-opacity:1;"/>
<stop offset="0.5" style="stop-color:rgb(79.215686%,80%,78.431373%);stop-opacity:1;"/>
<stop offset="1" style="stop-color:rgb(38.039216%,38.039216%,38.039216%);stop-opacity:1;"/>
</linearGradient>
<radialGradient id="radial8" gradientUnits="userSpaceOnUse" cx="12.887021" cy="16.771133" fx="12.887021" fy="16.771133" r="1.59099" gradientTransform="matrix(1.064296,0.000000000000002446,-0.000000000000002444,1.065019,0.270036,-10.047155)">
<stop offset="0" style="stop-color:rgb(0%,0%,0%);stop-opacity:1;"/>
<stop offset="1" style="stop-color:rgb(0%,0%,0%);stop-opacity:0;"/>
</radialGradient>
<linearGradient id="linear6" gradientUnits="userSpaceOnUse" x1="24.03125" y1="7.53125" x2="24.03125" y2="15.53125" gradientTransform="matrix(0.703739,0,0,0.704217,-2.549754,-3.353628)">
<stop offset="0" style="stop-color:rgb(60%,60.392157%,59.607843%);stop-opacity:1;"/>
<stop offset="0.5" style="stop-color:rgb(79.215686%,80%,78.431373%);stop-opacity:1;"/>
<stop offset="1" style="stop-color:rgb(38.039216%,38.039216%,38.039216%);stop-opacity:1;"/>
</linearGradient>
<linearGradient id="linear7" gradientUnits="userSpaceOnUse" x1="35.996582" y1="40.458221" x2="33.664921" y2="37.770721" gradientTransform="matrix(0.734574,0,0,0.73094,13.14657,3.97815)">
<stop offset="0" style="stop-color:rgb(48.627451%,48.627451%,48.627451%);stop-opacity:1;"/>
<stop offset="1" style="stop-color:rgb(72.156863%,72.156863%,72.156863%);stop-opacity:1;"/>
</linearGradient>
<mask id="mask8">
  <g filter="url(#alpha)">
<rect x="0" y="0" width="30" height="30" style="fill:rgb(0%,0%,0%);fill-opacity:0.368627;stroke:none;"/>
  </g>
</mask>
<linearGradient id="linear8" gradientUnits="userSpaceOnUse" x1="33.396004" y1="36.921333" x2="34.170048" y2="38.070381" gradientTransform="matrix(0.734574,0,0,0.73094,13.35394,3.76021)">
<stop offset="0" style="stop-color:rgb(100%,100%,100%);stop-opacity:1;"/>
<stop offset="1" style="stop-color:rgb(100%,100%,100%);stop-opacity:0;"/>
</linearGradient>
<clipPath id="clip9">
  <rect x="0" y="0" width="30" height="30"/>
</clipPath>
<g id="surface29" clip-path="url(#clip9)">
<path style="fill:none;stroke-width:1;stroke-linecap:butt;stroke-linejoin:miter;stroke:url(#linear8);stroke-miterlimit:4;" d="M 36.5 33.5 C 37.50625 33 39.75 31.93125 40.70625 30.55625 C 39.49375 30.83125 38.5875 30.61875 36.5625 30.60625 C 36.5625 30.60625 36.6375 32.93125 36.5 33.5 Z M 36.5 33.5 " transform="matrix(0.625,0,0,0.625,0,0)"/>
</g>
<mask id="mask9">
  <g filter="url(#alpha)">
<rect x="0" y="0" width="30" height="30" style="fill:rgb(0%,0%,0%);fill-opacity:0.556863;stroke:none;"/>
  </g>
</mask>
<clipPath id="clip10">
  <rect x="0" y="0" width="30" height="30"/>
</clipPath>
<g id="surface32" clip-path="url(#clip10)">
<path style=" stroke:none;fill-rule:evenodd;fill:rgb(100%,100%,100%);fill-opacity:1;" d="M 14.492188 2.8125 C 14.492188 2.984375 14.351562 3.125 14.179688 3.125 C 14.007812 3.125 13.867188 2.984375 13.867188 2.8125 C 13.867188 2.640625 14.007812 2.5 14.179688 2.5 C 14.351562 2.5 14.492188 2.640625 14.492188 2.8125 Z M 14.492188 2.8125 "/>
</g>
<mask id="mask10">
  <g filter="url(#alpha)">
<rect x="0" y="0" width="30" height="30" style="fill:rgb(0%,0%,0%);fill-opacity:0.556863;stroke:none;"/>
  </g>
</mask>
<clipPath id="clip11">
  <rect x="0" y="0" width="30" height="30"/>
</clipPath>
<g id="surface35" clip-path="url(#clip11)">
<path style=" stroke:none;fill-rule:evenodd;fill:rgb(100%,100%,100%);fill-opacity:1;" d="M 6.25 2.832031 C 6.25 3.015625 6.101562 3.164062 5.917969 3.164062 C 5.734375 3.164062 5.585938 3.015625 5.585938 2.832031 C 5.585938 2.648438 5.734375 2.5 5.917969 2.5 C 6.101562 2.5 6.25 2.648438 6.25 2.832031 Z M 6.25 2.832031 "/>
</g>
<mask id="mask11">
  <g filter="url(#alpha)">
<rect x="0" y="0" width="30" height="30" style="fill:rgb(0%,0%,0%);fill-opacity:0.556863;stroke:none;"/>
  </g>
</mask>
<clipPath id="clip12">
  <rect x="0" y="0" width="30" height="30"/>
</clipPath>
<g id="surface38" clip-path="url(#clip12)">
<path style=" stroke:none;fill-rule:evenodd;fill:rgb(100%,100%,100%);fill-opacity:1;" d="M 22.421875 2.832031 C 22.421875 3.015625 22.273438 3.164062 22.089844 3.164062 C 21.90625 3.164062 21.757812 3.015625 21.757812 2.832031 C 21.757812 2.648438 21.90625 2.5 22.089844 2.5 C 22.273438 2.5 22.421875 2.648438 22.421875 2.832031 Z M 22.421875 2.832031 "/>
</g>
<radialGradient id="radial9" gradientUnits="userSpaceOnUse" cx="12.993087" cy="18.399908" fx="12.993087" fy="18.399908" r="2.161726" >
<stop offset="0" style="stop-color:rgb(100%,100%,100%);stop-opacity:1;"/>
<stop offset="1" style="stop-color:rgb(100%,100%,100%);stop-opacity:0;"/>
</radialGradient>
<radialGradient id="radial10" gradientUnits="userSpaceOnUse" cx="12.993087" cy="18.399908" fx="12.993087" fy="18.399908" r="2.161726" >
<stop offset="0" style="stop-color:rgb(100%,100%,100%);stop-opacity:1;"/>
<stop offset="1" style="stop-color:rgb(100%,100%,100%);stop-opacity:0;"/>
</radialGradient>
</defs>
<g id="surface1">
<use xlink:href="#surface5" mask="url(#mask0)"/>
<use xlink:href="#surface8" mask="url(#mask1)"/>
<use xlink:href="#surface11" mask="url(#mask2)"/>
<path style="fill-rule:evenodd;fill:url(#linear1);stroke-width:1;stroke-linecap:butt;stroke-linejoin:round;stroke:rgb(18.039216%,20.392157%,21.176471%);stroke-opacity:1;stroke-miterlimit:4;" d="M 7.1875 30.61875 L 6.95625 41.5 L 41.0375 41.5 L 40.50625 28.825 Z M 7.1875 30.61875 " transform="matrix(0.625,0,0,0.625,0,0)"/>
<use xlink:href="#surface14" mask="url(#mask3)"/>
<path style="fill-rule:evenodd;fill:rgb(79.215686%,79.215686%,79.215686%);fill-opacity:1;stroke-width:1.000001;stroke-linecap:butt;stroke-linejoin:miter;stroke:rgb(40.784314%,40.784314%,40.784314%);stroke-opacity:1;stroke-miterlimit:4;" d="M 6.8125 11.275 L 39.6875 11.275 L 43.01875 36.9625 L 5.03125 36.9625 Z M 6.8125 11.275 " transform="matrix(0.625,0,0,0.625,0,0)"/>
<path style="fill-rule:evenodd;fill:url(#linear2);stroke-width:1.000001;stroke-linecap:butt;stroke-linejoin:miter;stroke:rgb(52.54902%,54.117647%,51.764706%);stroke-opacity:1;stroke-miterlimit:4;" d="M 6.18125 8.5 L 39.91875 8.5 L 43.34375 35.5 L 4.35625 35.5 Z M 6.18125 8.5 " transform="matrix(0.625,0,0,0.625,0,0)"/>
<path style="fill:none;stroke-width:1;stroke-linecap:butt;stroke-linejoin:miter;stroke:rgb(100%,100%,100%);stroke-opacity:1;stroke-miterlimit:4;" d="M 7.13125 9.5 L 39.03125 9.5 L 42.075 34.5 L 5.425 34.5 Z M 7.13125 9.5 " transform="matrix(0.625,0,0,0.625,0,0)"/>
<use xlink:href="#surface17" mask="url(#mask4)"/>
<use xlink:href="#surface20" mask="url(#mask5)"/>
<use xlink:href="#surface23" mask="url(#mask6)"/>
<use xlink:href="#surface26" mask="url(#mask7)"/>
<path style=" stroke:none;fill-rule:nonzero;fill:url(#linear3);" d="M 12.324219 18.328125 L 10.855469 18.328125 L 10.855469 11.710938 L 8.988281 12.273438 L 8.988281 11.03125 L 12.324219 10.113281 L 12.324219 18.328125 M 20.015625 18.328125 L 14.980469 18.328125 L 14.980469 17.152344 C 16.625 15.484375 17.558594 14.539062 17.777344 14.304688 C 18.003906 14.070312 18.183594 13.824219 18.3125 13.566406 C 18.449219 13.304688 18.519531 13.019531 18.519531 12.714844 C 18.519531 12.359375 18.402344 12.078125 18.171875 11.863281 C 17.941406 11.648438 17.621094 11.539062 17.210938 11.539062 C 16.941406 11.539062 16.644531 11.609375 16.320312 11.753906 C 15.996094 11.894531 15.703125 12.089844 15.445312 12.34375 L 15.445312 10.859375 C 16.167969 10.4375 16.855469 10.230469 17.503906 10.230469 C 18.273438 10.230469 18.875 10.433594 19.308594 10.847656 C 19.746094 11.257812 19.964844 11.820312 19.964844 12.542969 C 19.964844 12.988281 19.839844 13.441406 19.589844 13.898438 C 19.34375 14.351562 18.96875 14.8125 18.46875 15.277344 L 16.519531 17.09375 L 20.015625 17.09375 L 20.015625 18.328125 "/>
<path style="fill:none;stroke-width:0.846257;stroke-linecap:butt;stroke-linejoin:miter;stroke:url(#radial5);stroke-miterlimit:4;" d="M 14.583207 16.711452 C 14.583207 17.589166 13.874243 18.30297 12.990682 18.30297 C 12.112413 18.30297 11.403448 17.589166 11.403448 16.711452 C 11.403448 15.833739 12.112413 15.119935 12.990682 15.119935 C 13.874243 15.119935 14.583207 15.833739 14.583207 16.711452 Z M 14.583207 16.711452 " transform="matrix(0.738313,0,0,0.73878,-3.040402,-4.014056)"/>
<path style=" stroke:none;fill-rule:evenodd;fill:url(#radial6);" d="M 7.410156 8.332031 C 7.410156 8.8125 7.019531 9.203125 6.539062 9.203125 C 6.058594 9.203125 5.667969 8.8125 5.667969 8.332031 C 5.667969 7.851562 6.058594 7.460938 6.539062 7.460938 C 7.019531 7.460938 7.410156 7.851562 7.410156 8.332031 Z M 7.410156 8.332031 "/>
<path style=" stroke:none;fill-rule:evenodd;fill:url(#radial7);" d="M 22.414062 8.332031 C 22.414062 8.8125 22.023438 9.203125 21.542969 9.203125 C 21.0625 9.203125 20.671875 8.8125 20.671875 8.332031 C 20.671875 7.851562 21.0625 7.460938 21.542969 7.460938 C 22.023438 7.460938 22.414062 7.851562 22.414062 8.332031 Z M 22.414062 8.332031 "/>
<path style="fill:none;stroke-width:1.596817;stroke-linecap:round;stroke-linejoin:miter;stroke:url(#linear4);stroke-miterlimit:4;" d="M 14.415031 16.252197 C 13.624954 16.04696 13.034392 14.016779 13.082275 11.670423 C 13.130159 9.329613 13.800527 7.526857 14.590603 7.610062 C 15.38068 7.687719 16.003164 9.623601 15.995184 11.964411 " transform="matrix(-0.48947,0,0,0.704217,28.645569,-3.249759)"/>
<path style="fill:none;stroke-width:1.331719;stroke-linecap:round;stroke-linejoin:miter;stroke:url(#linear5);stroke-miterlimit:4;" d="M 14.412269 16.252197 C 13.624068 16.04696 13.035692 14.016779 13.085649 11.670423 C 13.130054 9.329613 13.80169 7.526857 14.589891 7.610062 C 15.378092 7.687719 16.005322 9.623601 15.999772 11.964411 " transform="matrix(0.703739,0,0,0.704217,-3.677628,-3.249759)"/>
<path style=" stroke:none;fill-rule:evenodd;fill:rgb(52.54902%,54.117647%,51.764706%);fill-opacity:1;" d="M 6.511719 5 L 21.875 5 L 21.875 5.625 L 6.511719 5.625 Z M 6.511719 5 "/>
<path style=" stroke:none;fill-rule:evenodd;fill:url(#radial8);" d="M 15.242188 8.296875 C 15.242188 8.78125 14.855469 9.171875 14.371094 9.171875 C 13.890625 9.171875 13.5 8.78125 13.5 8.296875 C 13.5 7.816406 13.890625 7.425781 14.371094 7.425781 C 14.855469 7.425781 15.242188 7.816406 15.242188 8.296875 Z M 15.242188 8.296875 "/>
<path style=" stroke:none;fill-rule:evenodd;fill:url(#linear6);" d="M 14.28125 1.445312 L 14.441406 1.445312 C 14.800781 1.445312 15.085938 1.730469 15.085938 2.089844 L 15.085938 7.972656 C 15.085938 8.328125 14.800781 8.617188 14.441406 8.617188 L 14.28125 8.617188 C 13.925781 8.617188 13.636719 8.328125 13.636719 7.972656 L 13.636719 2.089844 C 13.636719 1.730469 13.925781 1.445312 14.28125 1.445312 Z M 14.28125 1.445312 "/>
<path style="fill-rule:evenodd;fill:url(#linear7);stroke-width:1;stroke-linecap:butt;stroke-linejoin:miter;stroke:rgb(52.54902%,54.117647%,51.764706%);stroke-opacity:1;stroke-miterlimit:4;" d="M 34.91875 35.18125 C 37.25 35.33125 42.5375 32.35625 42.05 28.56875 C 40.9 30.3375 38.55 29.41875 35.53125 29.5375 C 35.53125 29.5375 35.9125 34.6375 34.91875 35.18125 Z M 34.91875 35.18125 " transform="matrix(0.625,0,0,0.625,0,0)"/>
<use xlink:href="#surface29" mask="url(#mask8)"/>
<use xlink:href="#surface32" mask="url(#mask9)"/>
<use xlink:href="#surface35" mask="url(#mask10)"/>
<use xlink:href="#surface38" mask="url(#mask11)"/>
<path style="fill:none;stroke-width:0.846257;stroke-linecap:butt;stroke-linejoin:miter;stroke:url(#radial9);stroke-miterlimit:4;" d="M 14.585072 16.711452 C 14.585072 17.589166 13.870816 18.30297 12.992546 18.30297 C 12.114277 18.30297 11.400021 17.589166 11.400021 16.711452 C 11.400021 15.833739 12.114277 15.119935 12.992546 15.119935 C 13.870816 15.119935 14.585072 15.833739 14.585072 16.711452 Z M 14.585072 16.711452 " transform="matrix(0.738313,0,0,0.73878,4.790253,-4.014056)"/>
<path style="fill:none;stroke-width:0.846257;stroke-linecap:butt;stroke-linejoin:miter;stroke:url(#radial10);stroke-miterlimit:4;" d="M 14.585 16.711452 C 14.585 17.589166 13.870744 18.30297 12.992474 18.30297 C 12.114205 18.30297 11.399949 17.589166 11.399949 16.711452 C 11.399949 15.833739 12.114205 15.119935 12.992474 15.119935 C 13.870744 15.119935 14.585 15.833739 14.585 16.711452 Z M 14.585 16.711452 " transform="matrix(0.738313,0,0,0.73878,11.985619,-4.014056)"/>
</g>
</svg>
